<?xml version="1.0" encoding="utf-8"?>
<!-- Generator: Adobe Illustrator 25.2.1, SVG Export Plug-In . SVG Version: 6.00 Build 0)  -->
<svg version="1.1" id="Capa_1" xmlns="http://www.w3.org/2000/svg" xmlns:xlink="http://www.w3.org/1999/xlink" x="0px" y="0px"
	 viewBox="0 0 1280 200" style="enable-background:new 0 0 1280 200;" xml:space="preserve">
<style type="text/css">
	.st0{fill:url(#SVGID_1_);}
	.st1{fill:#FF6B00;}
	.st2{opacity:7.000000e-02;fill:#FF6B00;enable-background:new    ;}
	.st3{opacity:5.000000e-02;fill:#FF6B00;enable-background:new    ;}
	.st4{fill:none;stroke:#1E3060;stroke-width:1.5;}
	.st5{fill:none;stroke:#1E3060;}
	.st6{fill:none;stroke:url(#SVGID_2_);stroke-width:2.5;}
	.st7{opacity:0.6;fill:#FF6B00;enable-background:new    ;}
	.st8{fill:#FFFFFF;}
	.st9{font-family:'Arial-BoldMT';}
	.st10{font-size:32px;}
	.st11{fill:#FF9A4D;}
	.st12{font-family:'ArialMT';}
	.st13{font-size:16px;}
	.st14{fill:#1E3060;}
	.st15{fill:#8AACEE;}
	.st16{font-size:11px;}
	.st17{font-size:36px;}
	.st18{fill:#8899BB;}
	.st19{font-size:12px;}
	.st20{fill:#5A6A8A;}
	.st21{fill:#EC6921;}
	.st22{fill:url(#path1059_2_);}
</style>
<linearGradient id="SVGID_1_" gradientUnits="userSpaceOnUse" x1="-1275.0032" y1="9.28" x2="-1274.0032" y2="9.28" gradientTransform="matrix(1280 0 0 200 1632004 -1756)">
	<stop  offset="0" style="stop-color:#0A1530"/>
	<stop  offset="0.6" style="stop-color:#0D1B3E"/>
	<stop  offset="1" style="stop-color:#132040"/>
</linearGradient>
<rect class="st0" width="1280" height="200"/>
<rect y="194" class="st1" width="1280" height="6"/>
<path class="st2" d="M900-60c133.3,66.7,260,93.3,380,80V0H900V-60z"/>
<path class="st3" d="M950-40c133.3,66.7,243.3,96.7,330,90V0H950V-40z"/>
<circle class="st4" cx="1180" cy="100" r="130"/>
<circle class="st5" cx="1180" cy="100" r="90"/>
<linearGradient id="SVGID_2_" gradientUnits="userSpaceOnUse" x1="-1275.0032" y1="59.0333" x2="-1274.0032" y2="59.0333" gradientTransform="matrix(1280 0 0 30 1632004 -1626)">
	<stop  offset="0" style="stop-color:#FF6B00;stop-opacity:0"/>
	<stop  offset="0.5" style="stop-color:#FF6B00"/>
	<stop  offset="1" style="stop-color:#FF9A4D;stop-opacity:0.6"/>
</linearGradient>
<path class="st6" d="M0,160c200-26.7,400-31.7,600-15s426.7,11.7,680-15"/>
<rect x="163" y="51" class="st7" width="2" height="80"/>
<text transform="matrix(1 0 0 1 173 81)" class="st8 st9 st10">Ratings Intelligence Dashboard</text>
<text transform="matrix(1 0 0 1 173 111)" class="st11 st12 st13">Análisis de audiencias · Rendimiento de contenido · Posicionamiento competitivo</text>
<path class="st14" d="M177,129h86c2.2,0,4,1.8,4,4v14c0,2.2-1.8,4-4,4h-86c-2.2,0-4-1.8-4-4v-14C173,130.8,174.8,129,177,129z"/>
<text transform="matrix(1 0 0 1 188.2166 144)" class="st15 st9 st16">PostgreSQL</text>
<path class="st14" d="M279,129h56c2.2,0,4,1.8,4,4v14c0,2.2-1.8,4-4,4h-56c-2.2,0-4-1.8-4-4v-14C275,130.8,276.8,129,279,129z"/>
<text transform="matrix(1 0 0 1 288.3623 144)" class="st15 st9 st16">Python</text>
<path class="st14" d="M351,129h66c2.2,0,4,1.8,4,4v14c0,2.2-1.8,4-4,4h-66c-2.2,0-4-1.8-4-4v-14C347,130.8,348.8,129,351,129z"/>
<text transform="matrix(1 0 0 1 360.4666 144)" class="st15 st9 st16">Power BI</text>
<path class="st14" d="M433,129h38c2.2,0,4,1.8,4,4v14c0,2.2-1.8,4-4,4h-38c-2.2,0-4-1.8-4-4v-14C429,130.8,430.8,129,433,129z"/>
<text transform="matrix(1 0 0 1 440.3877 144)" class="st15 st9 st16">DAX</text>
<text transform="matrix(1 0 0 1 949.9678 78)" class="st1 st9 st17">520</text>
<text transform="matrix(1 0 0 1 956.9932 98)" class="st18 st12 st19">registros</text>
<rect x="1030" y="60" class="st14" width="1" height="70"/>
<text transform="matrix(1 0 0 1 1064.9785 78)" class="st1 st9 st17">16</text>
<text transform="matrix(1 0 0 1 1051.8711 98)" class="st18 st12 st19">SQL queries</text>
<rect x="1135" y="60" class="st14" width="1" height="70"/>
<text transform="matrix(1 0 0 1 1179.9893 78)" class="st1 st9 st17">4</text>
<text transform="matrix(1 0 0 1 1161.6465 98)" class="st18 st12 st19">páginas BI</text>
<text transform="matrix(1 0 0 1 173 177)" class="st20 st12 st16">Hugo Ernesto Aguilar Gallardo · linkedin.com/in/hugo-ernesto-aguilar-gallardo-2359263a5</text>
<g id="g1815_1_" transform="matrix(0.42304449,0,0,0.42304449,3.612852,77.699901)">
	<path id="path1247_1_" class="st8" d="M26.6,75.2h46.3V89H58v39.7H41.4V89H26.6C26.6,89,26.6,75.2,26.6,75.2z"/>
	<path id="path1249_1_" class="st8" d="M87.8,89c14.7,0,22,7.8,22,23.6H81.4c0.2,2.4,0.9,4.3,2.4,5.7c1.4,1.2,3.1,1.9,5.2,1.9
		c2.8,0,5-0.9,6.1-2.8h13.7c-1.4,3.8-3.8,6.9-7.6,9c-3.5,2.1-7.8,3.3-12.5,3.3c-6.4,0-11.6-1.7-15.6-5.2c-4-3.5-6.1-8.5-6.1-14.9
		c0-5.7,1.9-10.6,5.7-14.4C76.9,90.8,81.9,89,87.8,89z M81.4,104.8h14.2c0-1.9-0.7-3.3-1.9-4.7c-1.2-1.2-2.8-1.9-4.7-1.9
		C84.7,98.4,82.1,100.5,81.4,104.8z"/>
	<path id="path1251_1_" class="st8" d="M117.1,75.2H132v53.4h-14.9V75.2z"/>
	<path id="path1253_1_" class="st8" d="M159.6,89c14.7,0,22,7.8,22,23.6h-28.4c0.2,2.4,0.9,4.3,2.4,5.7c1.4,1.2,3.1,1.9,5.2,1.9
		c2.8,0,5-0.9,6.1-2.8h13.7c-1.4,3.8-3.8,6.9-7.6,9c-3.5,2.1-7.8,3.3-12.5,3.3c-6.4,0-11.6-1.7-15.6-5.2c-4-3.5-6.1-8.5-6.1-14.9
		c0-5.7,1.9-10.6,5.7-14.4C148.5,90.8,153.5,89,159.6,89L159.6,89z M153.3,104.8h14.2c0-1.9-0.7-3.3-1.9-4.7
		c-1.2-1.2-2.8-1.9-4.7-1.9C156.3,98.4,154,100.5,153.3,104.8z"/>
	<path id="path1255_1_" class="st8" d="M184,89.9h15.6l6.1,23.6h0.2l6.1-23.6h15.1l-12.8,38.8H197L184,89.9z"/>
	<path id="path1257_1_" class="st8" d="M232.4,75.2h14.9v10.4h-14.9C232.4,85.6,232.4,75.2,232.4,75.2z M232.4,89.9h14.9v38.8h-14.9
		C232.4,128.7,232.4,89.9,232.4,89.9z"/>
	<path id="path1259_1_" class="st8" d="M273.1,89c5.9,0,10.4,0.9,13.7,3.1c3.3,2.1,5,5.2,5.2,9.2h-13.5c0-1.2-0.7-2.1-1.7-2.8
		s-2.1-1.2-3.3-1.2c-3.1,0-4.5,0.9-4.5,3.1c0,1.2,1.2,2.1,3.3,2.6c1.7,0.2,3.8,0.7,6.4,1.2c5,0.9,8.5,2.4,10.6,4.3
		c2.4,1.9,3.5,4.5,3.5,7.8c0,4.5-1.7,8-5.2,10.2c-3.5,2.4-8.3,3.5-14.4,3.5c-5.4,0-9.9-1.2-13.7-3.5s-5.7-5.7-5.7-10.2h14.2
		c0.5,3.1,2.4,4.5,5.7,4.5c1.4,0,2.6-0.2,3.5-0.7s1.4-1.2,1.4-2.1c0-1.2-0.5-2.1-1.7-2.6c-1.2-0.5-3.3-0.9-6.6-1.7
		c-5.4-0.9-9.2-2.4-11.8-4.3c-2.6-1.9-3.8-4.5-3.8-7.8c0-2.1,0.5-4,1.7-5.7c1.2-1.7,2.6-3.1,4.3-3.8c1.9-0.9,3.8-1.7,5.9-2.1
		C268.6,89.2,271,89,273.1,89L273.1,89z"/>
	<path id="path1261_1_" class="st8" d="M320.8,89c8.5,0,13.9,1.7,16.5,5.2c1.2,1.7,1.9,4.7,1.9,9.2v17.3c0,3.8,0.7,6.6,1.9,8.3
		h-15.4c-0.2-0.9-0.5-1.9-0.5-3.3v-0.5h-0.2c-2.8,3.1-7.1,4.7-12.5,4.7c-4.3,0-7.6-0.9-9.9-3.1c-2.4-2.1-3.5-5-3.5-8.7
		c0-3.5,1.2-6.4,3.8-8.5c2.6-2.1,7.1-3.3,13.5-4c4-0.5,6.4-0.9,7.3-1.7c0.9-0.5,1.2-1.4,1.2-2.6s-0.5-1.9-1.4-2.6s-2.1-0.9-3.5-0.9
		c-3.5,0-5.4,1.4-5.4,4h-13.7c0.2-4.3,1.9-7.6,5-9.5C309.3,89.9,314.2,89,320.8,89z M314.2,117.3c0,0.9,0.5,1.9,1.4,2.6
		c0.9,0.7,2.1,0.9,3.3,0.9c1.9,0,3.3-0.5,4.5-1.7c1.2-1.2,1.7-2.8,1.7-4.7v-3.3c-0.9,0.5-3.1,1.2-6.1,1.9c-1.9,0.5-3.1,0.9-3.8,1.7
		C314.5,115.4,314.2,116.1,314.2,117.3z"/>
</g>
<g id="g1036_1_">
	<path id="path1020_1_" class="st21" d="M62.1,32.2h38.7c-5.9-1.7-12.4-2.7-19.3-2.7C74.5,29.5,68.1,30.5,62.1,32.2z"/>
	<path id="path1022_1_" class="st21" d="M44.5,39.9h73.9c-1.8-1.1-3.7-2.1-5.7-3.1H50.2C48.2,37.8,46.3,38.8,44.5,39.9z"/>
	<path id="path1024_1_" class="st21" d="M33,48.7h96.9c-1.6-1.7-3.5-3.3-5.6-4.9H38.6C36.5,45.4,34.7,47,33,48.7L33,48.7z"/>
	<path id="path1026_1_" class="st21" d="M26.7,59h109.6c-0.8-2.4-1.9-4.8-3.6-7H30.2C28.6,54.3,27.4,56.6,26.7,59L26.7,59z"/>
	<path id="path1028_1_" class="st21" d="M25.9,64.4c0,1.8,0.3,3.4,0.7,5.1h109.8c0.4-1.6,0.7-3.3,0.7-5.1c0-0.8-0.1-1.6-0.1-2.3
		H26.1C25.9,62.9,25.9,63.6,25.9,64.4z"/>
	<path id="path1030_1_" class="st21" d="M32.7,79.7h97.6c2.3-2.4,4.1-5,5.2-7.8H27.5C28.6,74.7,30.4,77.3,32.7,79.7z"/>
	<path id="path1032_1_" class="st21" d="M43.2,88.1c1.7,1.1,3.5,2.1,5.3,3.1h65.9c1.9-1,3.6-2,5.3-3.1c3.1-1.9,5.9-4,8.3-6.3H34.9
		C37.3,84.1,40.1,86.1,43.2,88.1z"/>
	<path id="path1034_1_" class="st21" d="M81.5,99.3c11.7,0,22-2.8,30.6-7H50.9C59.6,96.4,69.8,99.3,81.5,99.3z"/>
</g>
<radialGradient id="path1059_2_" cx="81.4822" cy="64.4188" r="30.6343" fx="88.8295" fy="94.159" gradientTransform="matrix(6.123234e-17 -1 1 6.123234e-17 17.0634 145.901)" gradientUnits="userSpaceOnUse">
	<stop  offset="0.1" style="stop-color:#FFFFFF"/>
	<stop  offset="0.4" style="stop-color:#F9B31E"/>
	<stop  offset="0.85" style="stop-color:#EC6921"/>
	<stop  offset="0.8831" style="stop-color:#EC6B21"/>
	<stop  offset="0.934" style="stop-color:#EF7F35"/>
	<stop  offset="0.9998" style="stop-color:#F7B271"/>
	<stop  offset="1" style="stop-color:#F7B273"/>
</radialGradient>
<path id="path1059_1_" class="st22" d="M50.9,64.4c0,16.9,13.7,30.7,30.6,30.7s30.6-13.7,30.6-30.7S98.4,33.7,81.5,33.7
	C64.5,33.7,50.9,47.5,50.9,64.4z"/>
</svg>
